<svg width="48" height="48" viewBox="0 0 48 48" fill="none" xmlns="http://www.w3.org/2000/svg">
<g clip-path="url(#clip0_116_380)">
<path d="M23.8575 48C15.9525 48 9.78751 44.2725 7.30501 37.7475C4.46251 30.285 6.92251 19.29 18.8025 11.535C19.14 11.3175 19.59 11.4075 19.8075 11.745C20.025 12.0825 19.935 12.5325 19.5975 12.75C8.39251 20.0625 6.03001 30.3075 8.66251 37.23C11.3025 44.16 18.6 47.6175 27.7275 46.2525C34.6875 45.3225 39.075 41.43 40.095 35.295C41.505 26.8125 36.2175 16.7175 28.3125 12.7875C27.9525 12.6075 27.8025 12.1725 27.9825 11.8125C28.1625 11.4525 28.5975 11.31 28.9575 11.4825C37.3875 15.675 43.0275 26.46 41.5275 35.5275C40.395 42.345 35.565 46.665 27.93 47.685C26.535 47.895 25.17 48 23.8575 48ZM28.875 10.89C28.74 10.89 28.5975 10.8525 28.47 10.77C28.1325 10.545 28.0425 10.095 28.2675 9.76502L28.47 9.45752L32.085 3.95252C31.4325 3.97502 30.66 3.93752 29.775 3.85502C28.1325 3.69752 26.4225 3.33752 24.69 2.79002C19.4775 1.14002 15.9225 1.39502 14.3325 1.67252L19.6725 9.72002C19.89 10.0575 19.8 10.5075 19.4625 10.725C19.125 10.9425 18.675 10.8525 18.4575 10.515L12.5475 1.59752C12.4275 1.41002 12.39 1.17752 12.465 0.967516C12.5325 0.757516 12.6975 0.585016 12.9075 0.510016C13.0875 0.442516 17.4 -1.04998 25.1325 1.39502C26.7675 1.91252 28.38 2.25002 29.9175 2.40002C31.5075 2.55752 32.7225 2.52752 33.3375 2.31002C33.63 2.20502 33.96 2.30252 34.1475 2.55002C34.335 2.79752 34.35 3.13502 34.185 3.39752L29.475 10.5675C29.34 10.7775 29.115 10.89 28.875 10.89Z" fill="#0B0F12"/>
<path d="M28.5675 12.8701H19.0275C18.0675 12.8701 17.2875 12.0901 17.2875 11.1301C17.2875 10.1701 18.0675 9.39014 19.0275 9.39014H28.575C29.535 9.39014 30.315 10.1701 30.315 11.1301C30.315 12.0826 29.5275 12.8701 28.5675 12.8701ZM19.0275 10.8376C18.87 10.8376 18.7425 10.9651 18.7425 11.1226C18.7425 11.2801 18.87 11.4076 19.0275 11.4076H28.575C28.7325 11.4076 28.86 11.2801 28.86 11.1226C28.86 10.9651 28.7325 10.8376 28.575 10.8376H19.0275Z" fill="#0B0F12"/>
<path d="M24.015 42.6823C22.695 42.6823 21.6225 41.6023 21.6225 40.2823V39.8623C21.4425 39.8023 21.27 39.7348 21.0975 39.6523C18.885 38.7973 17.31 36.9598 16.9425 34.7548C16.7475 33.4873 17.6175 32.2573 18.885 32.0098C20.19 31.7773 21.4275 32.6473 21.675 33.9523C21.795 34.6123 22.395 35.0323 22.74 35.2198C23.1 35.3698 23.5875 35.4748 24.0225 35.4748C25.305 35.4748 26.3925 34.7023 26.3925 33.7798C26.3925 33.3598 26.3925 32.0923 23.9925 32.0923C23.94 32.0923 23.8875 32.0998 23.835 32.1073C23.7 32.1223 23.565 32.1298 23.4375 32.1298C21.585 32.1298 20.01 31.5223 18.7575 30.3223C17.5425 29.1823 16.8675 27.5248 16.8675 25.6498C16.8675 22.9198 18.795 20.4823 21.63 19.5523V19.1098C21.63 17.7898 22.7025 16.7173 24.0225 16.7173C24.435 16.7173 24.825 16.8223 25.14 17.0173C25.9275 17.4298 26.415 18.2248 26.415 19.1098V19.5448C28.845 20.3248 30.6075 22.1923 31.065 24.5173C31.2975 25.8223 30.4425 27.0673 29.16 27.3073C28.5225 27.4273 27.885 27.2923 27.3675 26.9398C26.8425 26.5798 26.49 26.0323 26.37 25.4023C26.235 24.7423 25.515 24.1648 24.6225 24.0148C24.3975 23.9848 24.2025 23.9548 24.0225 23.9548C22.74 23.9548 21.6525 24.7273 21.6525 25.6498C21.6525 26.1898 21.795 26.5948 22.0725 26.8573C22.38 27.1648 22.8825 27.3073 23.6175 27.3073H24.195C29.3325 27.4198 31.1475 30.8698 31.1475 33.7873C31.1475 36.5323 29.2275 38.9548 26.415 39.8548V40.2823C26.4075 41.6098 25.3275 42.6823 24.015 42.6823ZM19.2975 33.4348C19.245 33.4348 19.1925 33.4423 19.1475 33.4498C18.6525 33.5473 18.3 34.0348 18.375 34.5298C18.66 36.2173 19.89 37.6348 21.66 38.3173C21.96 38.4523 22.2225 38.5348 22.5 38.5948C22.8375 38.6623 23.085 38.9623 23.085 39.3073V40.2898C23.085 40.8148 23.505 41.2348 24.0225 41.2348C24.54 41.2348 24.96 40.8073 24.96 40.2898V39.2998C24.96 38.9623 25.1925 38.6698 25.515 38.5948C27.975 38.0098 29.6925 36.0298 29.6925 33.7873C29.6925 31.4173 28.245 28.8523 24.1725 28.7623H23.61C22.4775 28.7623 21.6375 28.4848 21.06 27.9073C20.4975 27.3823 20.19 26.5948 20.19 25.6573C20.19 23.9248 21.9075 22.5073 24.015 22.5073C24.3 22.5073 24.5625 22.5448 24.81 22.5823C26.355 22.8448 27.5325 23.8648 27.7875 25.1323C27.84 25.3948 27.975 25.6123 28.1775 25.7473C28.38 25.8823 28.6275 25.9348 28.8825 25.8898C29.385 25.7923 29.7225 25.3048 29.625 24.8023C29.2425 22.8748 27.6675 21.3448 25.5 20.8198C25.1775 20.7373 24.945 20.4448 24.945 20.1148V19.1248C24.945 18.7873 24.75 18.4723 24.435 18.3148C24.405 18.2998 24.3825 18.2848 24.36 18.2698C24.2775 18.2173 24.15 18.1873 24.0075 18.1873C23.49 18.1873 23.07 18.6073 23.07 19.1248V20.1148C23.07 20.4523 22.845 20.7373 22.515 20.8198C20.0325 21.4348 18.3075 23.4298 18.3075 25.6648C18.3075 27.1273 18.8175 28.4173 19.74 29.2798C20.7525 30.2473 21.96 30.6973 23.52 30.6898C23.565 30.6898 23.6025 30.6823 23.6475 30.6823C23.7525 30.6673 23.8575 30.6598 23.9775 30.6598C26.43 30.6598 27.8325 31.8073 27.8325 33.8023C27.8325 35.5348 26.115 36.9523 24.0075 36.9523C23.37 36.9523 22.6875 36.8098 22.0875 36.5473C21.0375 35.9773 20.4 35.1673 20.235 34.2448C20.145 33.7648 19.74 33.4348 19.2975 33.4348Z" fill="#FF7F00"/>
</g>
<defs>
<clipPath id="clip0_116_380">
<rect width="48" height="48" fill="white"/>
</clipPath>
</defs>
</svg>
