<svg width="48" height="48" viewBox="0 0 48 48" fill="none" xmlns="http://www.w3.org/2000/svg">
<path d="M38 45H10C9.20435 45 8.44129 44.6839 7.87868 44.1213C7.31607 43.5587 7 42.7957 7 42V6.00001C7 5.20436 7.31607 4.4413 7.87868 3.87869C8.44129 3.31608 9.20435 3.00001 10 3.00001H29.172C29.5661 2.99911 29.9564 3.07632 30.3205 3.2272C30.6845 3.37807 31.0151 3.59961 31.293 3.87901L40.121 12.707C40.4006 12.9848 40.6222 13.3153 40.7731 13.6794C40.924 14.0435 41.0011 14.4339 41 14.828V42C41 42.7957 40.6839 43.5587 40.1213 44.1213C39.5587 44.6839 38.7956 45 38 45ZM10 5.00001C9.73478 5.00001 9.48043 5.10536 9.29289 5.2929C9.10536 5.48044 9 5.73479 9 6.00001V42C9 42.2652 9.10536 42.5196 9.29289 42.7071C9.48043 42.8947 9.73478 43 10 43H38C38.2652 43 38.5196 42.8947 38.7071 42.7071C38.8946 42.5196 39 42.2652 39 42V14.828C38.9999 14.5628 38.8946 14.3085 38.707 14.121L29.879 5.29301C29.6915 5.10546 29.4372 5.00006 29.172 5.00001H10Z" fill="#0B0F12"/>
<path d="M40 15H32C31.2044 15 30.4413 14.684 29.8787 14.1214C29.3161 13.5587 29 12.7957 29 12V4.00003C29 3.80228 29.0587 3.60898 29.1686 3.44457C29.2785 3.28016 29.4346 3.15202 29.6173 3.07635C29.8 3.00068 30.0011 2.98088 30.195 3.01945C30.389 3.05802 30.5671 3.15322 30.707 3.29303L40.707 13.293C40.8468 13.4329 40.942 13.611 40.9806 13.805C41.0192 13.999 40.9993 14.2 40.9237 14.3827C40.848 14.5654 40.7199 14.7215 40.5555 14.8314C40.391 14.9413 40.1978 15 40 15ZM31 6.41403V12C31 12.2652 31.1054 12.5196 31.2929 12.7071C31.4804 12.8947 31.7348 13 32 13H37.586L31 6.41403Z" fill="#0B0F12"/>
<path d="M16 19.9999C15.7348 19.9999 15.4805 19.8945 15.293 19.7069L13.293 17.7069C13.1109 17.5183 13.0101 17.2657 13.0123 17.0035C13.0146 16.7413 13.1198 16.4905 13.3052 16.3051C13.4906 16.1197 13.7414 16.0145 14.0036 16.0122C14.2658 16.01 14.5184 16.1108 14.707 16.2929L16 17.5859L19.293 14.2929C19.4816 14.1108 19.7342 14.01 19.9964 14.0122C20.2586 14.0145 20.5094 14.1197 20.6948 14.3051C20.8802 14.4905 20.9854 14.7413 20.9877 15.0035C20.99 15.2657 20.8892 15.5183 20.707 15.7069L16.707 19.7069C16.5195 19.8945 16.2652 19.9999 16 19.9999Z" fill="#FF7F00"/>
<path d="M34 19H24C23.7348 19 23.4804 18.8946 23.2929 18.7071C23.1054 18.5196 23 18.2652 23 18C23 17.7348 23.1054 17.4804 23.2929 17.2929C23.4804 17.1054 23.7348 17 24 17H34C34.2652 17 34.5196 17.1054 34.7071 17.2929C34.8946 17.4804 35 17.7348 35 18C35 18.2652 34.8946 18.5196 34.7071 18.7071C34.5196 18.8946 34.2652 19 34 19Z" fill="#0B0F12"/>
<path d="M16 28.9999C15.7348 28.9999 15.4805 28.8945 15.293 28.7069L13.293 26.7069C13.1109 26.5183 13.0101 26.2657 13.0123 26.0035C13.0146 25.7413 13.1198 25.4905 13.3052 25.3051C13.4906 25.1197 13.7414 25.0145 14.0036 25.0122C14.2658 25.01 14.5184 25.1108 14.707 25.2929L16 26.5859L19.293 23.2929C19.4816 23.1108 19.7342 23.01 19.9964 23.0122C20.2586 23.0145 20.5094 23.1197 20.6948 23.3051C20.8802 23.4905 20.9854 23.7413 20.9877 24.0035C20.99 24.2657 20.8892 24.5183 20.707 24.7069L16.707 28.7069C16.5195 28.8945 16.2652 28.9999 16 28.9999Z" fill="#FF7F00"/>
<path d="M34 28H24C23.7348 28 23.4804 27.8946 23.2929 27.7071C23.1054 27.5196 23 27.2652 23 27C23 26.7348 23.1054 26.4804 23.2929 26.2929C23.4804 26.1054 23.7348 26 24 26H34C34.2652 26 34.5196 26.1054 34.7071 26.2929C34.8946 26.4804 35 26.7348 35 27C35 27.2652 34.8946 27.5196 34.7071 27.7071C34.5196 27.8946 34.2652 28 34 28Z" fill="#0B0F12"/>
<path d="M16 37.9999C15.7348 37.9999 15.4805 37.8945 15.293 37.7069L13.293 35.7069C13.1109 35.5183 13.0101 35.2657 13.0123 35.0035C13.0146 34.7413 13.1198 34.4905 13.3052 34.3051C13.4906 34.1197 13.7414 34.0145 14.0036 34.0122C14.2658 34.01 14.5184 34.1108 14.707 34.2929L16 35.5859L19.293 32.2929C19.4816 32.1108 19.7342 32.01 19.9964 32.0122C20.2586 32.0145 20.5094 32.1197 20.6948 32.3051C20.8802 32.4905 20.9854 32.7413 20.9877 33.0035C20.99 33.2657 20.8892 33.5183 20.707 33.7069L16.707 37.7069C16.5195 37.8945 16.2652 37.9999 16 37.9999Z" fill="#FF7F00"/>
<path d="M34 37H24C23.7348 37 23.4804 36.8946 23.2929 36.7071C23.1054 36.5196 23 36.2652 23 36C23 35.7348 23.1054 35.4804 23.2929 35.2929C23.4804 35.1054 23.7348 35 24 35H34C34.2652 35 34.5196 35.1054 34.7071 35.2929C34.8946 35.4804 35 35.7348 35 36C35 36.2652 34.8946 36.5196 34.7071 36.7071C34.5196 36.8946 34.2652 37 34 37Z" fill="#0B0F12"/>
</svg>
