<svg width="48" height="48" viewBox="0 0 48 48" fill="none" xmlns="http://www.w3.org/2000/svg">
<g clip-path="url(#clip0_116_402)">
<path d="M27.45 4.95C27.3 4.95 27.075 4.875 26.925 4.725L23.925 1.725L20.925 4.725C20.625 5.025 20.175 5.025 19.875 4.725C19.575 4.425 19.575 3.975 19.875 3.675L23.325 0.225C23.625 0.075 23.775 0 24 0C24.225 0 24.375 0.075 24.525 0.225L27.975 3.675C28.275 3.975 28.275 4.425 27.975 4.725C27.825 4.875 27.675 4.95 27.45 4.95Z" fill="#0B0F12"/>
<path d="M24 12.525C23.625 12.525 23.25 12.225 23.25 11.775V0.75C23.25 0.375 23.55 0 24 0C24.45 0 24.75 0.3 24.75 0.75V11.775C24.75 12.15 24.375 12.525 24 12.525ZM4.2 28.2C4.05 28.2 3.825 28.125 3.675 27.975L0.225 24.525C-0.075 24.225 -0.075 23.775 0.225 23.475L3.675 20.025C3.975 19.725 4.425 19.725 4.725 20.025C5.025 20.325 5.025 20.775 4.725 21.075L1.725 24.075L4.725 27.075C5.025 27.375 5.025 27.825 4.725 28.125C4.575 28.125 4.425 28.2 4.2 28.2Z" fill="#0B0F12"/>
<path d="M11.775 24.75H0.75C0.375 24.75 0 24.45 0 24C0 23.55 0.3 23.25 0.75 23.25H11.775C12.15 23.25 12.525 23.55 12.525 24C12.525 24.45 12.15 24.75 11.775 24.75ZM24 48C23.775 48 23.625 47.925 23.475 47.775L20.025 44.325C19.725 44.025 19.725 43.575 20.025 43.275C20.325 42.975 20.775 42.975 21.075 43.275L24.075 46.275L27.075 43.275C27.375 42.975 27.825 42.975 28.125 43.275C28.425 43.575 28.425 44.025 28.125 44.325L24.675 47.775C24.375 47.925 24.225 48 24 48Z" fill="#0B0F12"/>
<path d="M24 47.9999C23.625 47.9999 23.25 47.6999 23.25 47.2499V36.2249C23.25 35.8499 23.55 35.4749 24 35.4749C24.45 35.4749 24.75 35.7749 24.75 36.2249V47.2499C24.75 47.6999 24.375 47.9999 24 47.9999ZM43.8 28.1999C43.65 28.1999 43.425 28.1249 43.275 27.9749C42.975 27.6749 42.975 27.2249 43.275 26.9249L46.275 23.9249L43.275 20.9249C42.975 20.6249 42.975 20.1749 43.275 19.8749C43.575 19.5749 44.025 19.5749 44.325 19.8749L47.775 23.3249C47.925 23.4749 48 23.6249 48 23.8499C48 24.0749 47.925 24.2249 47.775 24.3749L44.325 27.8249C44.175 28.1249 43.95 28.1999 43.8 28.1999Z" fill="#0B0F12"/>
<path d="M47.25 24.75H36.225C35.85 24.75 35.475 24.45 35.475 24C35.475 23.55 35.775 23.25 36.225 23.25H47.25C47.625 23.25 48 23.55 48 24C48 24.45 47.7 24.75 47.25 24.75Z" fill="#0B0F12"/>
<path d="M24 34.6501C18.15 34.6501 13.35 29.8501 13.35 24.0001C13.35 18.1501 18.15 13.3501 24 13.3501C29.85 13.3501 34.65 18.1501 34.65 24.0001C34.65 29.8501 29.85 34.6501 24 34.6501ZM24 14.8501C18.9 14.8501 14.85 18.9751 14.85 24.0001C14.85 29.1001 18.975 33.1501 24 33.1501C29.1 33.1501 33.15 29.0251 33.15 24.0001C33.15 18.9001 29.1 14.8501 24 14.8501Z" fill="#FF7F00"/>
<path d="M23.9999 29.9249C23.0249 29.9249 22.1999 29.5499 21.5999 28.9499C20.9999 28.3499 20.6249 27.4499 20.6999 26.6249C20.6999 26.2499 21.0749 25.8749 21.4499 25.8749C21.8249 25.8749 22.1999 26.2499 22.1999 26.6249C22.1999 27.1499 22.3499 27.5999 22.7249 27.9749C23.0999 28.3499 23.5499 28.4999 23.9999 28.5749C25.0499 28.5749 25.8749 27.7499 25.8749 26.7749C25.8749 26.2499 25.7249 25.7999 25.3499 25.4249C24.9749 24.9749 24.5249 24.7499 23.9999 24.7499C22.1249 24.7499 20.6999 23.2499 20.6999 21.4499C20.6999 19.6499 22.1999 18.1499 23.9999 18.1499C25.7999 18.1499 27.2999 19.6499 27.2999 21.4499C27.2999 21.8249 26.9999 22.1999 26.5499 22.1999C26.1749 22.1999 25.7999 21.8999 25.7999 21.4499C25.7999 20.3999 24.9749 19.5749 23.9249 19.5749C22.8749 19.5749 22.0499 20.3999 22.0499 21.4499C22.0499 22.4999 22.8749 23.3249 23.9249 23.3249C24.8249 23.3249 25.6499 23.6999 26.3249 24.2999C26.9249 24.9749 27.2999 25.7999 27.2999 26.6999C27.2999 28.4249 25.7999 29.9249 23.9999 29.9249Z" fill="#FF7F00"/>
<path d="M24 31.875C23.625 31.875 23.25 31.575 23.25 31.125V29.175C23.25 28.8 23.55 28.425 24 28.425C24.45 28.425 24.75 28.725 24.75 29.175V31.125C24.75 31.5 24.375 31.875 24 31.875ZM24 19.575C23.625 19.575 23.25 19.275 23.25 18.825V16.875C23.25 16.5 23.55 16.125 24 16.125C24.45 16.125 24.75 16.425 24.75 16.875V18.825C24.75 19.2 24.375 19.575 24 19.575Z" fill="#FF7F00"/>
</g>
<defs>
<clipPath id="clip0_116_402">
<rect width="48" height="48" fill="white"/>
</clipPath>
</defs>
</svg>
