<svg width="104" height="34" viewBox="0 0 104 34" fill="none" xmlns="http://www.w3.org/2000/svg">
<rect x="104" width="4" height="4" rx="2" transform="rotate(90 104 0)" fill="#FF7F00"/>
<rect x="104" y="10" width="4" height="4" rx="2" transform="rotate(90 104 10)" fill="#FF7F00"/>
<rect x="104" y="20" width="4" height="4" rx="2" transform="rotate(90 104 20)" fill="#FF7F00"/>
<rect x="104" y="30" width="4" height="4" rx="2" transform="rotate(90 104 30)" fill="#FF7F00"/>
<rect x="94" width="4" height="4" rx="2" transform="rotate(90 94 0)" fill="#FF7F00"/>
<rect x="94" y="10" width="4" height="4" rx="2" transform="rotate(90 94 10)" fill="#FF7F00"/>
<rect x="94" y="20" width="4" height="4" rx="2" transform="rotate(90 94 20)" fill="#FF7F00"/>
<rect x="94" y="30" width="4" height="4" rx="2" transform="rotate(90 94 30)" fill="#FF7F00"/>
<rect x="84" width="4" height="4" rx="2" transform="rotate(90 84 0)" fill="#FF7F00"/>
<rect x="84" y="10" width="4" height="4" rx="2" transform="rotate(90 84 10)" fill="#FF7F00"/>
<rect x="84" y="20" width="4" height="4" rx="2" transform="rotate(90 84 20)" fill="#FF7F00"/>
<rect x="84" y="30" width="4" height="4" rx="2" transform="rotate(90 84 30)" fill="#FF7F00"/>
<rect x="74" width="4" height="4" rx="2" transform="rotate(90 74 0)" fill="#FF7F00"/>
<rect x="74" y="10" width="4" height="4" rx="2" transform="rotate(90 74 10)" fill="#FF7F00"/>
<rect x="74" y="20" width="4" height="4" rx="2" transform="rotate(90 74 20)" fill="#FF7F00"/>
<rect x="74" y="30" width="4" height="4" rx="2" transform="rotate(90 74 30)" fill="#FF7F00"/>
<rect x="64" width="4" height="4" rx="2" transform="rotate(90 64 0)" fill="#FF7F00"/>
<rect x="64" y="10" width="4" height="4" rx="2" transform="rotate(90 64 10)" fill="#FF7F00"/>
<rect x="64" y="20" width="4" height="4" rx="2" transform="rotate(90 64 20)" fill="#FF7F00"/>
<rect x="64" y="30" width="4" height="4" rx="2" transform="rotate(90 64 30)" fill="#FF7F00"/>
<rect x="54" width="4" height="4" rx="2" transform="rotate(90 54 0)" fill="#FF7F00"/>
<rect x="54" y="10" width="4" height="4" rx="2" transform="rotate(90 54 10)" fill="#FF7F00"/>
<rect x="54" y="20" width="4" height="4" rx="2" transform="rotate(90 54 20)" fill="#FF7F00"/>
<rect x="54" y="30" width="4" height="4" rx="2" transform="rotate(90 54 30)" fill="#FF7F00"/>
<rect x="44" width="4" height="4" rx="2" transform="rotate(90 44 0)" fill="#FF7F00"/>
<rect x="44" y="10" width="4" height="4" rx="2" transform="rotate(90 44 10)" fill="#FF7F00"/>
<rect x="44" y="20" width="4" height="4" rx="2" transform="rotate(90 44 20)" fill="#FF7F00"/>
<rect x="44" y="30" width="4" height="4" rx="2" transform="rotate(90 44 30)" fill="#FF7F00"/>
<rect x="34" width="4" height="4" rx="2" transform="rotate(90 34 0)" fill="#FF7F00"/>
<rect x="34" y="10" width="4" height="4" rx="2" transform="rotate(90 34 10)" fill="#FF7F00"/>
<rect x="34" y="20" width="4" height="4" rx="2" transform="rotate(90 34 20)" fill="#FF7F00"/>
<rect x="34" y="30" width="4" height="4" rx="2" transform="rotate(90 34 30)" fill="#FF7F00"/>
<rect x="24" width="4" height="4" rx="2" transform="rotate(90 24 0)" fill="#FF7F00"/>
<rect x="24" y="10" width="4" height="4" rx="2" transform="rotate(90 24 10)" fill="#FF7F00"/>
<rect x="24" y="20" width="4" height="4" rx="2" transform="rotate(90 24 20)" fill="#FF7F00"/>
<rect x="24" y="30" width="4" height="4" rx="2" transform="rotate(90 24 30)" fill="#FF7F00"/>
<rect x="14" width="4" height="4" rx="2" transform="rotate(90 14 0)" fill="#FF7F00"/>
<rect x="14" y="10" width="4" height="4" rx="2" transform="rotate(90 14 10)" fill="#FF7F00"/>
<rect x="14" y="20" width="4" height="4" rx="2" transform="rotate(90 14 20)" fill="#FF7F00"/>
<rect x="14" y="30" width="4" height="4" rx="2" transform="rotate(90 14 30)" fill="#FF7F00"/>
<rect x="4" width="4" height="4" rx="2" transform="rotate(90 4 0)" fill="#FF7F00"/>
<rect x="4" y="10" width="4" height="4" rx="2" transform="rotate(90 4 10)" fill="#FF7F00"/>
<rect x="4" y="20" width="4" height="4" rx="2" transform="rotate(90 4 20)" fill="#FF7F00"/>
<rect x="4" y="30" width="4" height="4" rx="2" transform="rotate(90 4 30)" fill="#FF7F00"/>
</svg>
