<svg width="48" height="48" viewBox="0 0 48 48" fill="none" xmlns="http://www.w3.org/2000/svg">
<path d="M13 23C12.7348 23 12.4804 22.8946 12.2929 22.7071C12.1054 22.5196 12 22.2652 12 22V8C12 7.20435 11.6839 6.44129 11.1213 5.87868C10.5587 5.31607 9.79565 5 9 5C8.20435 5 7.44129 5.31607 6.87868 5.87868C6.31607 6.44129 6 7.20435 6 8V21H10C10.2652 21 10.5196 21.1054 10.7071 21.2929C10.8946 21.4804 11 21.7348 11 22C11 22.2652 10.8946 22.5196 10.7071 22.7071C10.5196 22.8946 10.2652 23 10 23H5C4.73478 23 4.48043 22.8946 4.29289 22.7071C4.10536 22.5196 4 22.2652 4 22V8C4 6.67392 4.52678 5.40215 5.46447 4.46447C6.40215 3.52678 7.67392 3 9 3C10.3261 3 11.5979 3.52678 12.5355 4.46447C13.4732 5.40215 14 6.67392 14 8V22C14 22.2652 13.8946 22.5196 13.7071 22.7071C13.5196 22.8946 13.2652 23 13 23ZM37 45H19C18.819 45 18.6413 44.9509 18.486 44.8579C18.3307 44.7648 18.2035 44.6314 18.1181 44.4718C18.0327 44.3121 17.9922 44.1323 18.001 43.9515C18.0098 43.7707 18.0675 43.5956 18.168 43.445L18.248 43.325C18.3916 43.1097 18.6131 42.9584 18.866 42.903C19.7533 42.7038 20.5467 42.2091 21.1161 41.5C21.6855 40.7909 21.9972 39.9094 22 39V35C22 34.7348 22.1054 34.4804 22.2929 34.2929C22.4804 34.1054 22.7348 34 23 34H43C43.2652 34 43.5196 34.1054 43.7071 34.2929C43.8946 34.4804 44 34.7348 44 35V38C43.9979 39.8559 43.2597 41.6351 41.9474 42.9474C40.6351 44.2597 38.8559 44.9979 37 45ZM22.461 43H37C38.3256 42.9984 39.5964 42.4711 40.5338 41.5338C41.4711 40.5964 41.9984 39.3256 42 38V36H24V39C23.9963 40.4772 23.4484 41.9013 22.461 43Z" fill="#0B0F12"/>
<path d="M37 45H18C16.4092 44.9984 14.884 44.3658 13.7591 43.2409C12.6342 42.116 12.0016 40.5908 12 39V8C12 7.20435 11.6839 6.44129 11.1213 5.87868C10.5587 5.31607 9.79565 5 9 5C8.73478 5 8.48043 4.89464 8.29289 4.70711C8.10536 4.51957 8 4.26522 8 4C8 3.73478 8.10536 3.48043 8.29289 3.29289C8.48043 3.10536 8.73478 3 9 3H30C32.6513 3.00291 35.1931 4.05742 37.0679 5.93215C38.9426 7.80688 39.9971 10.3487 40 13V35C40 35.2652 39.8946 35.5196 39.7071 35.7071C39.5196 35.8946 39.2652 36 39 36C38.7348 36 38.4804 35.8946 38.2929 35.7071C38.1054 35.5196 38 35.2652 38 35V13C37.9976 10.879 37.154 8.84555 35.6542 7.34578C34.1544 5.846 32.121 5.00238 30 5H13C13.6509 5.86456 14.002 6.91783 14 8V39C14 40.0609 14.4214 41.0783 15.1716 41.8284C15.9217 42.5786 16.9391 43 18 43H37C37.2652 43 37.5196 43.1054 37.7071 43.2929C37.8946 43.4804 38 43.7348 38 44C38 44.2652 37.8946 44.5196 37.7071 44.7071C37.5196 44.8946 37.2652 45 37 45Z" fill="#0B0F12"/>
<path d="M25 16C24.4067 16 23.8266 15.8241 23.3333 15.4944C22.8399 15.1648 22.4554 14.6962 22.2284 14.1481C22.0013 13.5999 21.9419 12.9967 22.0576 12.4147C22.1734 11.8328 22.4591 11.2982 22.8787 10.8787C23.2982 10.4591 23.8328 10.1734 24.4147 10.0576C24.9967 9.94189 25.5999 10.0013 26.1481 10.2284C26.6962 10.4554 27.1648 10.8399 27.4944 11.3333C27.8241 11.8266 28 12.4067 28 13C28 13.2652 27.8946 13.5196 27.7071 13.7071C27.5196 13.8946 27.2652 14 27 14C26.7348 14 26.4804 13.8946 26.2929 13.7071C26.1054 13.5196 26 13.2652 26 13C26 12.8022 25.9414 12.6089 25.8315 12.4444C25.7216 12.28 25.5654 12.1518 25.3827 12.0761C25.2 12.0004 24.9989 11.9806 24.8049 12.0192C24.6109 12.0578 24.4327 12.153 24.2929 12.2929C24.153 12.4327 24.0578 12.6109 24.0192 12.8049C23.9806 12.9989 24.0004 13.2 24.0761 13.3827C24.1518 13.5654 24.28 13.7216 24.4444 13.8315C24.6089 13.9414 24.8022 14 25 14C25.2652 14 25.5196 14.1054 25.7071 14.2929C25.8946 14.4804 26 14.7348 26 15C26 15.2652 25.8946 15.5196 25.7071 15.7071C25.5196 15.8946 25.2652 16 25 16Z" fill="#FF7F00"/>
<path d="M25 20C24.2044 20 23.4413 19.6839 22.8787 19.1213C22.3161 18.5587 22 17.7956 22 17C22 16.7348 22.1054 16.4804 22.2929 16.2929C22.4804 16.1053 22.7348 16 23 16C23.2652 16 23.5196 16.1053 23.7071 16.2929C23.8946 16.4804 24 16.7348 24 17C24 17.1978 24.0586 17.3911 24.1685 17.5556C24.2784 17.72 24.4346 17.8482 24.6173 17.9239C24.8 17.9996 25.0011 18.0194 25.1951 17.9808C25.3891 17.9422 25.5673 17.847 25.7071 17.7071C25.847 17.5672 25.9422 17.3891 25.9808 17.1951C26.0194 17.0011 25.9996 16.8 25.9239 16.6173C25.8482 16.4346 25.72 16.2784 25.5556 16.1685C25.3911 16.0586 25.1978 16 25 16C24.7348 16 24.4804 15.8946 24.2929 15.7071C24.1054 15.5196 24 15.2652 24 15C24 14.7348 24.1054 14.4804 24.2929 14.2929C24.4804 14.1053 24.7348 14 25 14C25.7956 14 26.5587 14.3161 27.1213 14.8787C27.6839 15.4413 28 16.2043 28 17C28 17.7956 27.6839 18.5587 27.1213 19.1213C26.5587 19.6839 25.7956 20 25 20ZM25 12C24.7348 12 24.4804 11.8946 24.2929 11.7071C24.1054 11.5196 24 11.2652 24 11V9.66699C24 9.40178 24.1054 9.14742 24.2929 8.95989C24.4804 8.77235 24.7348 8.66699 25 8.66699C25.2652 8.66699 25.5196 8.77235 25.7071 8.95989C25.8946 9.14742 26 9.40178 26 9.66699V11C26 11.2652 25.8946 11.5196 25.7071 11.7071C25.5196 11.8946 25.2652 12 25 12Z" fill="#FF7F00"/>
<path d="M25 21.333C24.7348 21.333 24.4804 21.2276 24.2929 21.0401C24.1054 20.8526 24 20.5982 24 20.333V19C24 18.7348 24.1054 18.4804 24.2929 18.2929C24.4804 18.1054 24.7348 18 25 18C25.2652 18 25.5196 18.1054 25.7071 18.2929C25.8946 18.4804 26 18.7348 26 19V20.333C26 20.5982 25.8946 20.8526 25.7071 21.0401C25.5196 21.2276 25.2652 21.333 25 21.333ZM34 26H30C29.7348 26 29.4804 25.8946 29.2929 25.7071C29.1054 25.5196 29 25.2652 29 25C29 24.7348 29.1054 24.4804 29.2929 24.2929C29.4804 24.1054 29.7348 24 30 24H34C34.2652 24 34.5196 24.1054 34.7071 24.2929C34.8946 24.4804 35 24.7348 35 25C35 25.2652 34.8946 25.5196 34.7071 25.7071C34.5196 25.8946 34.2652 26 34 26ZM27 26H18C17.7348 26 17.4804 25.8946 17.2929 25.7071C17.1054 25.5196 17 25.2652 17 25C17 24.7348 17.1054 24.4804 17.2929 24.2929C17.4804 24.1054 17.7348 24 18 24H27C27.2652 24 27.5196 24.1054 27.7071 24.2929C27.8946 24.4804 28 24.7348 28 25C28 25.2652 27.8946 25.5196 27.7071 25.7071C27.5196 25.8946 27.2652 26 27 26ZM21 31H18C17.7348 31 17.4804 30.8946 17.2929 30.7071C17.1054 30.5196 17 30.2652 17 30C17 29.7348 17.1054 29.4804 17.2929 29.2929C17.4804 29.1054 17.7348 29 18 29H21C21.2652 29 21.5196 29.1054 21.7071 29.2929C21.8946 29.4804 22 29.7348 22 30C22 30.2652 21.8946 30.5196 21.7071 30.7071C21.5196 30.8946 21.2652 31 21 31ZM34 31H24C23.7348 31 23.4804 30.8946 23.2929 30.7071C23.1054 30.5196 23 30.2652 23 30C23 29.7348 23.1054 29.4804 23.2929 29.2929C23.4804 29.1054 23.7348 29 24 29H34C34.2652 29 34.5196 29.1054 34.7071 29.2929C34.8946 29.4804 35 29.7348 35 30C35 30.2652 34.8946 30.5196 34.7071 30.7071C34.5196 30.8946 34.2652 31 34 31Z" fill="#FF7F00"/>
</svg>
