<svg width="18" height="18" viewBox="0 0 18 18" fill="none" xmlns="http://www.w3.org/2000/svg">
<path d="M7.86805e-07 9C6.3119e-07 10.78 0.527842 12.5201 1.51677 14.0001C2.50571 15.4802 3.91131 16.6337 5.55585 17.3149C7.20038 17.9961 9.00998 18.1743 10.7558 17.8271C12.5016 17.4798 14.1053 16.6226 15.364 15.364C16.6226 14.1053 17.4798 12.5016 17.8271 10.7558C18.1743 9.00998 17.9961 7.20038 17.3149 5.55585C16.6337 3.91131 15.4802 2.50571 14.0001 1.51677C12.5201 0.527841 10.78 -6.3119e-07 9 -7.86805e-07L9 1.8C10.424 1.8 11.8161 2.22227 13.0001 3.01342C14.1841 3.80456 15.107 4.92905 15.6519 6.24468C16.1969 7.56031 16.3395 9.00799 16.0617 10.4047C15.7838 11.8013 15.0981 13.0842 14.0912 14.0912C13.0842 15.0981 11.8013 15.7838 10.4047 16.0617C9.00799 16.3395 7.56031 16.1969 6.24468 15.6519C4.92905 15.107 3.80456 14.1841 3.01342 13.0001C2.22227 11.8161 1.8 10.424 1.8 9L7.86805e-07 9Z" fill="#FF7F00"/>
</svg>
