<svg width="26" height="26" viewBox="0 0 26 26" fill="none" xmlns="http://www.w3.org/2000/svg">
<rect width="26" height="26" fill="#F5F5F5"/>
<path d="M26 13C26 10.4288 25.2376 7.91543 23.8091 5.77759C22.3806 3.63975 20.3503 1.97351 17.9749 0.989566C15.5994 0.00562684 12.9856 -0.251817 10.4638 0.249791C7.94207 0.751399 5.62569 1.98953 3.80761 3.80761C1.98953 5.62569 0.751399 7.94207 0.249791 10.4638C-0.251817 12.9856 0.00562687 15.5994 0.989566 17.9749C1.97351 20.3503 3.63975 22.3806 5.77759 23.8091C7.91543 25.2376 10.4288 26 13 26V23.4C10.9431 23.4 8.93234 22.7901 7.22207 21.6473C5.5118 20.5045 4.1788 18.8803 3.39165 16.9799C2.6045 15.0796 2.39855 12.9885 2.79983 10.9711C3.20112 8.95366 4.19162 7.10056 5.64609 5.64609C7.10056 4.19162 8.95366 3.20112 10.9711 2.79983C12.9885 2.39855 15.0796 2.6045 16.9799 3.39165C18.8803 4.1788 20.5045 5.5118 21.6473 7.22207C22.7901 8.93234 23.4 10.9431 23.4 13H26Z" fill="#0B0F12"/>
</svg>
