<svg width="48" height="48" viewBox="0 0 48 48" fill="none" xmlns="http://www.w3.org/2000/svg">
<g clip-path="url(#clip0_116_300)">
<path d="M25.2525 34.2898C25.2375 34.2898 25.2225 34.2898 25.2075 34.2898L10.515 34.2823C10.215 34.2823 9.96749 34.0348 9.96749 33.7348C9.96749 33.4348 10.215 33.1873 10.515 33.1873L24.8775 33.1948L24.7125 30.5323C24.45 28.5448 22.7325 27.0073 20.7 26.9548C17.5725 28.1098 14.4375 28.1098 11.3925 26.9473C9.35999 26.9923 7.64249 28.5298 7.37999 30.5623L7.31999 31.5448C7.30499 31.8448 7.04249 32.0848 6.74249 32.0623C6.44249 32.0473 6.20999 31.7848 6.22499 31.4848L6.28499 30.4648C6.62249 27.8248 8.86499 25.8598 11.49 25.8598C11.5575 25.8598 11.625 25.8748 11.6925 25.8973C14.5425 27.0073 17.4825 27.0073 20.415 25.9048C20.475 25.8823 20.5425 25.8673 20.61 25.8673C23.2425 25.8673 25.4775 27.8323 25.815 30.4348L26.0025 33.4798C26.025 33.6748 25.95 33.8998 25.8 34.0648C25.6425 34.2073 25.455 34.2898 25.2525 34.2898ZM24.8925 33.5323C24.8925 33.5473 24.8925 33.5548 24.8925 33.5698V33.5323ZM25.215 33.1873H25.245C25.23 33.1873 25.2225 33.1873 25.215 33.1873ZM16.0125 24.9823C14.985 24.9823 13.9875 24.5923 13.125 23.8498C13.1025 23.8348 13.0875 23.8123 13.0725 23.7973C11.9175 22.7698 11.205 21.2098 11.205 19.6948L11.235 18.4498C11.25 18.1498 11.4975 17.9173 11.8125 17.9323C12.1125 17.9473 12.345 18.2023 12.33 18.5098L12.3075 19.7098C12.3 20.9248 12.8925 22.1923 13.845 23.0098C13.86 23.0248 13.8825 23.0398 13.8975 23.0548C15.2325 24.1723 16.965 24.1198 18.24 22.9648C19.155 22.1398 19.725 20.8948 19.725 19.7023L19.7325 19.4173C19.74 19.1173 19.9725 18.8773 20.295 18.8848C20.595 18.8923 20.835 19.1473 20.8275 19.4473L20.82 19.7173C20.82 21.2173 20.13 22.7473 18.9675 23.7823C18.1125 24.5698 17.085 24.9823 16.0125 24.9823Z" fill="#FF7F00"/>
<path d="M20.2725 19.9876C20.2125 19.9876 20.145 19.9801 20.085 19.9576C19.8675 19.8826 19.725 19.6726 19.725 19.4401V18.4576C19.725 18.3601 19.7325 18.2551 19.7475 18.1576C19.725 17.3176 19.4775 16.0276 18.975 15.7201C18.915 15.6826 18.72 15.5626 18.2775 15.7726L17.145 16.3201C16.98 16.4026 16.785 16.3876 16.6275 16.2976C16.47 16.2076 16.365 16.0426 16.3575 15.8551L16.3425 15.6376C15.915 15.5476 15.15 15.4726 14.22 15.7426C14.1525 15.7651 14.085 15.7651 14.0175 15.7651L13.575 15.7201C13.38 15.7051 13.2 15.7576 13.05 15.8776L12.9675 15.9451C12.4875 16.3426 12.3825 16.9201 12.3825 17.3326L12.3225 18.6451C12.315 18.8251 12.2175 18.9901 12.0675 19.0876C11.9175 19.1851 11.7225 19.2001 11.5575 19.1251C11.295 19.0126 10.005 18.2476 10.3275 14.1526C10.3275 14.1151 10.665 10.9051 15.3375 11.1301C15.3825 11.1301 15.435 11.1301 15.48 11.1226C16.8225 10.9351 19.2 10.7776 20.0475 11.7901C20.2125 11.9851 20.3775 12.2926 20.355 12.7201C21 13.0726 21.7575 13.8826 21.7875 15.4126C21.795 15.4951 21.9825 18.2026 20.6775 19.7851C20.595 19.9201 20.4375 19.9876 20.2725 19.9876ZM18.735 14.5501C19.0875 14.5501 19.365 14.6626 19.5675 14.7826C20.19 15.1726 20.5125 15.9826 20.6775 16.7176C20.7375 16.1926 20.73 15.7276 20.715 15.4726C20.685 13.9051 19.7475 13.6351 19.635 13.6051C19.485 13.5676 19.3575 13.4701 19.2825 13.3351C19.2075 13.2001 19.1925 13.0426 19.2375 12.8926C19.3275 12.6226 19.2525 12.5326 19.2225 12.4951C18.885 12.0901 17.385 11.9701 15.6525 12.2101C15.54 12.2251 15.42 12.2326 15.3 12.2251C11.7075 12.0526 11.445 14.1526 11.4375 14.2426C11.37 15.1276 11.3775 15.8176 11.43 16.3576C11.5875 15.8551 11.8725 15.4276 12.2775 15.0901L12.36 15.0226C12.735 14.7151 13.2075 14.5726 13.695 14.6176L14.0325 14.6476C15.27 14.3176 16.2675 14.4676 16.7625 14.5951C17.0025 14.6551 17.1975 14.8051 17.3175 15.0076L17.8125 14.7676C18.1575 14.6101 18.465 14.5501 18.735 14.5501Z" fill="#FF7F00"/>
<path d="M46.1775 40.3125H10.7925C10.4925 40.3125 10.245 40.065 10.245 39.765C10.245 39.465 10.4925 39.2175 10.7925 39.2175H46.1775C46.575 39.2175 46.8975 38.895 46.8975 38.4975V6.80248C46.8975 6.40498 46.575 6.08248 46.1775 6.08248H4.08752C3.69002 6.08248 3.36752 6.40498 3.36752 6.80248V32.52C3.36752 32.82 3.12002 33.0675 2.82002 33.0675C2.52002 33.0675 2.27252 32.82 2.27252 32.52V6.80248C2.27252 5.79748 3.09002 4.97998 4.09502 4.97998H46.185C47.19 4.97998 48.0075 5.79748 48.0075 6.80248V38.49C48 39.495 47.1825 40.3125 46.1775 40.3125Z" fill="#0B0F12"/>
<path d="M6.05251 43.02C4.51501 43.02 2.97001 42.435 1.79251 41.2725C-0.577492 38.925 -0.599993 35.0775 1.74751 32.7075C4.09501 30.33 7.93501 30.315 10.3125 32.6625C12.6825 35.01 12.705 38.8575 10.3575 41.2275C9.17251 42.42 7.61251 43.02 6.05251 43.02ZM6.05251 32.01C4.77751 32.01 3.49501 32.4975 2.52751 33.48C0.607508 35.4225 0.622508 38.565 2.56501 40.4925C4.50751 42.4125 7.65001 42.3975 9.57751 40.455C11.4975 38.5125 11.4825 35.37 9.54001 33.4425C8.58001 32.49 7.31251 32.01 6.05251 32.01Z" fill="#0B0F12"/>
<path d="M3.88501 39.69C3.74251 39.69 3.60751 39.6375 3.50251 39.5325C3.28501 39.3225 3.28501 38.97 3.49501 38.7525L7.58251 34.575C7.73251 34.4175 7.95751 34.3725 8.16002 34.44C8.36251 34.515 8.50501 34.695 8.52001 34.9125L8.76002 37.755C8.78252 38.055 8.56501 38.325 8.25751 38.3475C7.95002 38.37 7.68752 38.1525 7.66502 37.845L7.52251 36.195L4.28251 39.525C4.17001 39.6375 4.02751 39.69 3.88501 39.69Z" fill="#FF7F00"/>
<path d="M7.98003 35.5126C7.97253 35.5126 7.95753 35.5126 7.95003 35.5126L5.15253 35.3476C4.85253 35.3326 4.62003 35.0701 4.63503 34.7626C4.65003 34.4626 4.90503 34.2226 5.22003 34.2451L8.01753 34.4101C8.31753 34.4251 8.55003 34.6876 8.53503 34.9951C8.50503 35.2876 8.26503 35.5126 7.98003 35.5126Z" fill="#FF7F00"/>
<path d="M42.4125 30.2849H30.4875C30.1875 30.2849 29.94 30.0374 29.94 29.7374C29.94 29.4374 30.1875 29.1899 30.4875 29.1899H42.4125C42.7125 29.1899 42.96 29.4374 42.96 29.7374C42.96 30.0449 42.7125 30.2849 42.4125 30.2849ZM42.15 25.4699C41.85 25.4699 41.6025 25.2224 41.6025 24.9224V14.2199C41.6025 13.9199 41.85 13.6724 42.15 13.6724C42.45 13.6724 42.6975 13.9199 42.6975 14.2199V24.9149C42.6975 25.2224 42.45 25.4699 42.15 25.4699ZM36.315 25.4324C36.015 25.4324 35.7675 25.1849 35.7675 24.8849V17.8499C35.7675 17.5499 36.015 17.3024 36.315 17.3024C36.615 17.3024 36.8625 17.5499 36.8625 17.8499V24.8849C36.87 25.1924 36.6225 25.4324 36.315 25.4324ZM30.4875 25.4699C30.1875 25.4699 29.94 25.2224 29.94 24.9224V21.2099C29.94 20.9099 30.1875 20.6624 30.4875 20.6624C30.7875 20.6624 31.035 20.9099 31.035 21.2099V24.9224C31.035 25.2224 30.7875 25.4699 30.4875 25.4699ZM42.4125 34.2899H30.4875C30.1875 34.2899 29.94 34.0424 29.94 33.7424C29.94 33.4424 30.1875 33.1949 30.4875 33.1949H42.4125C42.7125 33.1949 42.96 33.4424 42.96 33.7424C42.96 34.0424 42.7125 34.2899 42.4125 34.2899Z" fill="#0B0F12"/>
</g>
<defs>
<clipPath id="clip0_116_300">
<rect width="48" height="48" fill="white"/>
</clipPath>
</defs>
</svg>
