<svg width="48" height="48" viewBox="0 0 48 48" fill="none" xmlns="http://www.w3.org/2000/svg">
<path d="M44.475 34.0351H40.29C39.885 34.0351 39.5625 33.7126 39.5625 33.3076C39.5625 32.9026 39.885 32.5801 40.29 32.5801H44.475C45.615 32.5801 46.545 31.6501 46.545 30.5101V6.5626C46.545 5.4226 45.615 4.5001 44.475 4.5001H3.525C2.385 4.5001 1.455 5.4226 1.455 6.5626V30.5101C1.455 31.6501 2.385 32.5801 3.5325 32.5801H31.095C31.5 32.5801 31.8225 32.9026 31.8225 33.3076C31.8225 33.7126 31.5 34.0351 31.095 34.0351H3.525C1.5825 34.0351 0 32.4526 0 30.5176V6.5626C0 4.6201 1.5825 3.0376 3.525 3.0376H44.475C46.4175 3.0376 48 4.6201 48 6.5626V30.5101C48 32.4601 46.4175 34.0351 44.475 34.0351Z" fill="#FF7F00"/>
<path d="M27.2475 17.9399C26.955 17.9399 26.685 17.7674 26.5725 17.4749L24.1425 11.2574L21.465 17.4974C21.3075 17.8649 20.88 18.0374 20.5125 17.8799C20.145 17.7224 19.9725 17.2949 20.13 16.9274L23.505 9.05993C23.6175 8.78993 23.8725 8.61743 24.1875 8.61743C24.48 8.62493 24.7425 8.80493 24.855 9.08243L27.93 16.9499C28.08 17.3249 27.8925 17.7449 27.5175 17.8949C27.4275 17.9249 27.3375 17.9399 27.2475 17.9399Z" fill="#FF7F00"/>
<path d="M26.0325 14.8199H22.14C21.735 14.8199 21.4125 14.4974 21.4125 14.0924C21.4125 13.6874 21.735 13.3649 22.14 13.3649H26.0325C26.4375 13.3649 26.76 13.6874 26.76 14.0924C26.76 14.4974 26.43 14.8199 26.0325 14.8199ZM19.5075 9.95988H11.2575C10.8525 9.95988 10.53 9.63738 10.53 9.23238C10.53 8.82738 10.8525 8.50488 11.2575 8.50488H19.5075C19.9125 8.50488 20.235 8.82738 20.235 9.23238C20.235 9.63738 19.9125 9.95988 19.5075 9.95988Z" fill="#FF7F00"/>
<path d="M15.3825 18.0451C14.9775 18.0451 14.655 17.7226 14.655 17.3176V9.23261C14.655 8.82761 14.9775 8.50511 15.3825 8.50511C15.7875 8.50511 16.11 8.82761 16.11 9.23261V17.3176C16.11 17.7226 15.7875 18.0451 15.3825 18.0451ZM36.75 18.1726C36.5475 18.1726 36.345 18.0901 36.195 17.9176L29.04 9.57761C28.7775 9.27011 28.815 8.81261 29.115 8.55011C29.4225 8.28761 29.88 8.32511 30.1425 8.63261L37.2975 16.9726C37.56 17.2801 37.5225 17.7376 37.2225 18.0001C37.08 18.1126 36.915 18.1726 36.75 18.1726Z" fill="#FF7F00"/>
<path d="M29.5949 18.1725C29.43 18.1725 29.2575 18.1125 29.1225 18C28.815 17.7375 28.785 17.28 29.0475 16.9725L36.2024 8.63247C36.465 8.32497 36.9225 8.29497 37.23 8.54997C37.5375 8.81247 37.5675 9.26997 37.305 9.57747L30.15 17.9175C30 18.09 29.7975 18.1725 29.5949 18.1725ZM27.9074 22.785H7.55245C7.14745 22.785 6.82495 22.4625 6.82495 22.0575C6.82495 21.6525 7.14745 21.33 7.55245 21.33H27.9074C28.3125 21.33 28.635 21.6525 28.635 22.0575C28.635 22.4625 28.305 22.785 27.9074 22.785ZM20.7975 28.1025H7.55245C7.14745 28.1025 6.82495 27.78 6.82495 27.375C6.82495 26.97 7.14745 26.6475 7.55245 26.6475H20.7975C21.2025 26.6475 21.525 26.97 21.525 27.375C21.525 27.7725 21.2025 28.1025 20.7975 28.1025Z" fill="#FF7F00"/>
<path d="M30.5851 30.3676C30.2926 30.3676 30.0151 30.1876 29.9101 29.9026C28.1926 25.5076 30.0301 23.5426 31.9051 22.6576C34.4026 20.8726 37.3876 21.0751 39.4276 23.1601C40.6651 23.3101 41.4901 23.7301 41.9551 24.4276C42.8251 25.7401 42.1876 27.7351 41.5051 29.8576C41.4376 30.0751 41.2726 30.2401 41.0626 30.3226C40.8526 30.3976 40.6126 30.3751 40.4251 30.2551C39.3001 29.5426 38.5576 29.0101 38.2876 27.8101C36.4051 28.7701 34.6576 29.3026 32.3776 28.4926C32.0401 28.3726 31.6651 28.5001 31.5076 28.7851C31.3576 29.0551 31.2976 29.3176 31.3201 29.5726C31.3501 29.9326 31.1101 30.2626 30.7576 30.3451C30.6901 30.3676 30.6376 30.3676 30.5851 30.3676ZM38.8876 25.9351C39.0151 25.9351 39.1426 25.9651 39.2551 26.0326C39.4801 26.1601 39.6151 26.4001 39.6151 26.6551C39.6226 27.6451 39.7876 28.0351 40.4026 28.5001C40.8151 27.1576 41.1301 25.8301 40.7326 25.2451C40.5001 24.8926 39.9151 24.6676 39.0076 24.5926C38.8201 24.5776 38.6551 24.4876 38.5276 24.3526C36.9751 22.6201 34.6801 22.4326 32.6926 23.8876C32.6551 23.9176 32.6101 23.9401 32.5651 23.9626C31.4776 24.4576 30.3826 25.3051 30.7126 27.4876C31.2826 27.0151 32.0851 26.8651 32.8426 27.1276C34.7701 27.8101 36.1576 27.3376 38.5276 26.0251C38.6476 25.9651 38.7676 25.9351 38.8876 25.9351Z" fill="#0B0F12"/>
<path d="M35.6926 36.765C32.7751 36.765 30.2926 34.62 29.8126 31.8C29.3026 31.5525 28.9501 31.035 28.9501 30.4275C28.9501 29.5875 29.6326 28.905 30.4726 28.905C30.5626 28.905 30.6376 28.9125 30.7201 28.9275C31.1176 29.0025 31.3726 29.385 31.2976 29.775C31.2226 30.1575 30.8626 30.4125 30.4876 30.36C30.4276 30.36 30.4051 30.39 30.4051 30.4275C30.4051 30.4575 30.4351 30.495 30.4726 30.495C30.8551 30.495 31.1701 30.7875 31.2001 31.1625C31.3876 33.4875 33.3601 35.31 35.7001 35.31C38.0401 35.31 40.0201 33.4875 40.2001 31.1625C40.2301 30.7875 40.5451 30.495 40.9276 30.495C40.9801 30.495 41.0101 30.465 41.0101 30.4275C41.0101 30.39 40.9801 30.36 40.9426 30.36C40.5526 30.42 40.1626 30.15 40.1026 29.7525C40.0426 29.355 40.3051 28.98 40.6951 28.92C40.7776 28.905 40.8601 28.905 40.9426 28.905C41.7826 28.905 42.4651 29.5875 42.4651 30.4275C42.4651 31.035 42.1051 31.56 41.5876 31.8075C41.1001 34.6275 38.6101 36.765 35.6926 36.765Z" fill="#0B0F12"/>
<path d="M43.6801 44.9552H27.7201C27.3151 44.9552 26.9926 44.6327 26.9926 44.2277V41.1602C26.9926 38.6927 28.9951 36.6902 31.4626 36.6902H33.3676C33.5701 36.6902 33.7576 36.7727 33.9001 36.9227C34.5301 37.5902 35.1376 37.9352 35.7001 37.9352C36.2701 37.9352 36.8776 37.5977 37.5076 36.9227C37.6426 36.7802 37.8376 36.6977 38.0401 36.6977H39.9376C42.4051 36.6977 44.4076 38.7002 44.4076 41.1677V44.2352C44.4076 44.6327 44.0851 44.9552 43.6801 44.9552ZM28.4476 43.5002H42.9526V41.1602C42.9526 39.4952 41.6026 38.1452 39.9376 38.1452H38.3401C37.4926 38.9702 36.6001 39.3827 35.7001 39.3827C34.8001 39.3827 33.9151 38.9627 33.0601 38.1452H31.4626C29.7976 38.1452 28.4476 39.4952 28.4476 41.1602V43.5002Z" fill="#0B0F12"/>
</svg>
